<?xml version="1.0" encoding="UTF-8"?> <svg xmlns="http://www.w3.org/2000/svg" viewBox="0 0 493 226" width="493" height="226"><style> tspan { white-space:pre } .shp0 { fill: #f0bc5e } .shp1 { fill: #000000 } </style><g id="Layer"><g id="Layer"><path id="Layer" class="shp0" d="M33.13 205.93L33.13 225.47L0.37 225.47L0.37 0.27L33.13 0.27L33.13 19.81L20.71 19.81L20.71 205.93L33.13 205.93Z"></path></g><g id="Layer"><path id="Layer" class="shp0" d="M459.94 205.93L459.94 225.47L492.7 225.47L492.7 0.27L459.94 0.27L459.94 19.81L472.35 19.81L472.35 205.93L459.94 205.93Z"></path></g><g id="Layer"><path id="Layer" class="shp1" d="M64.07 38.33L64.07 38.85C64.07 39.24 63.81 39.5 63.42 39.5L54.71 39.5C54.58 39.5 54.45 39.63 54.45 39.76L54.45 82.53C54.45 82.92 54.19 83.18 53.8 83.18L53.15 83.18C52.76 83.18 52.5 82.92 52.5 82.53L52.5 39.76C52.5 39.63 52.37 39.5 52.24 39.5L44.05 39.5C43.66 39.5 43.4 39.24 43.4 38.85L43.4 38.33C43.4 37.94 43.66 37.68 44.05 37.68L63.42 37.68C63.81 37.68 64.07 37.94 64.07 38.33Z"></path><path id="Layer" class="shp1" d="M88.9 59.98L88.9 82.54C88.9 82.93 88.64 83.19 88.25 83.19L87.6 83.19C87.21 83.19 86.95 82.93 86.95 82.54L86.95 60.24C86.95 55.04 84.48 51.98 80.32 51.98C76.03 51.98 73.36 55.29 73.36 60.76L73.36 82.54C73.36 82.93 73.1 83.19 72.71 83.19L72.06 83.19C71.67 83.19 71.41 82.93 71.41 82.54L71.41 38.34C71.41 37.95 71.67 37.69 72.06 37.69L72.71 37.69C73.1 37.69 73.36 37.95 73.36 38.34L73.36 54.33C73.36 54.59 73.55 54.59 73.69 54.39C75.05 51.66 77.59 50.16 80.71 50.16C85.91 50.16 88.9 53.8 88.9 59.98Z"></path><path id="Layer" fill-rule="evenodd" class="shp1" d="M114.57 67.32L99.49 67.32C99.36 67.32 99.23 67.45 99.23 67.58L99.23 74.28C99.23 78.76 102.09 81.88 106.25 81.88C109.7 81.88 112.23 79.73 113.01 76.48C113.14 76.09 113.33 75.9 113.72 75.9L114.37 75.9C114.76 75.9 115.09 76.16 114.96 76.61C114.11 80.84 110.8 83.7 106.25 83.7C100.92 83.7 97.28 79.8 97.28 74.27L97.28 59.51C97.28 54.05 100.92 50.08 106.25 50.08C111.58 50.08 115.22 54.05 115.22 59.51L115.22 66.66C115.22 67.06 114.96 67.32 114.57 67.32ZM99.23 59.52L99.23 65.37C99.23 65.5 99.36 65.63 99.49 65.63L113.01 65.63C113.14 65.63 113.27 65.5 113.27 65.37L113.27 59.52C113.27 55.03 110.41 51.91 106.25 51.91C102.09 51.91 99.23 55.04 99.23 59.52Z"></path><path id="Layer" class="shp1" d="M183.82 101.19L173.58 101.19L161.96 41.27L150.23 101.19L139.65 101.19L126.65 20.69L137.35 20.69L145.52 81.87L157.02 20.69L166.91 20.69L178.53 81.87L186.7 20.69L196.82 20.69L183.82 101.19Z"></path><path id="Layer" class="shp1" d="M205.09 101.19L205.09 20.69L239.02 20.69L239.02 30.24L215.9 30.24L215.9 55.54L235.45 55.54L235.45 65.2L215.9 65.2L215.9 91.65L239.36 91.65L239.36 101.2L205.09 101.2L205.09 101.19Z"></path><path id="Layer" fill-rule="evenodd" class="shp1" d="M279.84 59.32C287.09 60.47 289.27 66.22 289.27 72.09L289.27 85.32C289.27 95.1 282.14 101.19 269.95 101.19L249.82 101.19L249.82 20.69L270.18 20.69C282.37 20.69 288.81 26.79 288.81 36.56L288.81 46.68C288.82 52.19 286.63 58.52 279.84 59.32ZM260.64 54.95L269.96 54.95C275.14 54.95 278.01 52.65 278.01 47.7L278.01 38.38C278.01 32.74 275.36 30.1 269.96 30.1L260.64 30.1L260.64 54.95ZM270.41 64.15L260.63 64.15L260.63 91.75L270.41 91.75C275.82 91.75 278.46 89.1 278.46 83.47L278.46 71.4C278.46 66.45 275.59 64.15 270.41 64.15Z"></path><path id="Layer" class="shp1" d="M326.76 49.09L326.76 38.16C326.76 31.72 323.66 29.19 318.14 29.19C312.62 29.19 309.52 31.72 309.52 38.16L309.52 43.68C309.52 48.51 311.24 50.24 315.85 52.88L326.31 58.63C333.21 62.54 337.58 66.45 337.58 74.16L337.58 85.32C337.58 97.4 330.57 102.11 318.37 102.11L318.14 102.11C305.95 102.11 298.93 97.51 298.93 85.32L298.93 71.63L309.51 71.63L309.51 83.48C309.51 89.81 312.61 92.68 318.25 92.68C323.88 92.68 326.99 89.8 326.99 83.48L326.99 77.15C326.99 72.32 325.26 70.25 320.55 67.6L310.2 61.85C302.84 57.6 298.93 54.14 298.93 46.44L298.93 36.32C298.93 24.7 306.98 19.76 318.02 19.76L318.25 19.76C329.29 19.76 337.34 24.71 337.34 36.32L337.34 49.09L326.76 49.09L326.76 49.09Z"></path><path id="Layer" class="shp1" d="M349.07 101.19L349.07 20.69L359.88 20.69L359.88 101.19L349.07 101.19Z"></path><path id="Layer" class="shp1" d="M407.15 30.23L393.12 30.23L393.12 101.19L382.31 101.19L382.31 30.23L368.28 30.23L368.28 20.68L407.15 20.68L407.15 30.23L407.15 30.23Z"></path><path id="Layer" class="shp1" d="M415.08 101.19L415.08 20.69L449.01 20.69L449.01 30.24L425.89 30.24L425.89 55.54L445.44 55.54L445.44 65.2L425.89 65.2L425.89 91.65L449.35 91.65L449.35 101.2L415.08 101.2L415.08 101.19Z"></path><path id="Layer" fill-rule="evenodd" class="shp1" d="M75.07 187.21L57.82 187.21L54.37 206.19L43.9 206.19L59.89 125.69L73.23 125.69L89.45 206.19L78.4 206.19L75.07 187.21ZM73.34 178.12L66.44 139.25L59.42 178.12L73.34 178.12Z"></path><path id="Layer" fill-rule="evenodd" class="shp1" d="M128.89 206.19L117.73 173.18L108.3 173.18L108.3 206.19L97.49 206.19L97.49 125.69L117.62 125.69C129.81 125.69 137.17 130.87 137.17 142.71L137.17 156.17C137.17 164.22 133.72 169.17 127.74 171.58L139.93 206.2L128.89 206.2L128.89 206.19ZM108.3 163.75L117.16 163.75C123.14 163.75 126.36 161.33 126.36 154.21L126.36 144.78C126.36 137.65 123.14 135.24 117.16 135.24L108.3 135.24L108.3 163.75Z"></path><path id="Layer" class="shp1" d="M187.54 190.08C187.54 202.16 180.18 207.1 167.99 207.1L167.76 207.1C155.57 207.1 148.21 202.27 148.21 190.08L148.21 141.78C148.21 130.16 155.57 124.76 167.76 124.76L167.99 124.76C180.18 124.76 187.54 130.17 187.54 141.78L187.54 156.16L176.73 156.16L176.73 143.85C176.73 136.83 173.74 134.3 167.87 134.3C162 134.3 159.02 136.83 159.02 143.85L159.02 188.01C159.02 195.03 162.01 197.56 167.87 197.56C173.74 197.56 176.73 195.03 176.73 188.01L176.73 173.75L187.54 173.75L187.54 190.08Z"></path><path id="Layer" class="shp1" d="M210.3 125.68L210.3 160.41L229.28 160.41L229.28 125.68L240.09 125.68L240.09 206.18L229.28 206.18L229.28 170.07L210.3 170.07L210.3 206.18L199.49 206.18L199.49 125.68L210.3 125.68Z"></path><path id="Layer" class="shp1" d="M253.43 206.19L253.43 125.69L264.24 125.69L264.24 206.19L253.43 206.19Z"></path><path id="Layer" class="shp1" d="M311.5 135.23L297.47 135.23L297.47 206.19L286.66 206.19L286.66 135.23L272.63 135.23L272.63 125.68L311.5 125.68L311.5 135.23L311.5 135.23Z"></path><path id="Layer" class="shp1" d="M319.44 206.19L319.44 125.69L353.37 125.69L353.37 135.24L330.25 135.24L330.25 160.54L349.8 160.54L349.8 170.2L330.25 170.2L330.25 196.65L353.71 196.65L353.71 206.2L319.44 206.2L319.44 206.19Z"></path><path id="Layer" class="shp1" d="M402.93 190.08C402.93 202.16 395.57 207.1 383.38 207.1L383.15 207.1C370.96 207.1 363.6 202.27 363.6 190.08L363.6 141.78C363.6 130.16 370.96 124.76 383.15 124.76L383.38 124.76C395.57 124.76 402.93 130.17 402.93 141.78L402.93 156.16L392.12 156.16L392.12 143.85C392.12 136.83 389.13 134.3 383.26 134.3C377.39 134.3 374.4 136.83 374.4 143.85L374.4 188.01C374.4 195.03 377.39 197.56 383.26 197.56C389.13 197.56 392.12 195.03 392.12 188.01L392.12 173.75L402.93 173.75L402.93 190.08Z"></path><path id="Layer" class="shp1" d="M448.35 135.23L434.32 135.23L434.32 206.19L423.51 206.19L423.51 135.23L409.48 135.23L409.48 125.68L448.35 125.68L448.35 135.23L448.35 135.23Z"></path></g><g id="Layer"><path id="Layer" class="shp0" d="M43.34 20.21L116.63 20.21L116.63 25.01L43.34 25.01L43.34 20.21Z"></path></g><g id="Layer"><path id="Layer" class="shp0" d="M43.34 96.19L116.63 96.19L116.63 101.19L43.34 101.19L43.34 96.19Z"></path></g></g></svg> 